<svg xmlns="http://www.w3.org/2000/svg" width="1600" height="900" viewBox="0 0 1600 900">
  <defs>
    <marker id="arrow" markerWidth="10" markerHeight="10" refX="8" refY="3" orient="auto">
      <path d="M0,0 L0,6 L9,3 z" fill="#475467"/>
    </marker>
    <marker id="arrowGreen" markerWidth="10" markerHeight="10" refX="8" refY="3" orient="auto">
      <path d="M0,0 L0,6 L9,3 z" fill="#087E6A"/>
    </marker>
    <marker id="arrowRed" markerWidth="10" markerHeight="10" refX="8" refY="3" orient="auto">
      <path d="M0,0 L0,6 L9,3 z" fill="#C4322B"/>
    </marker>
    <filter id="shadow" x="-20%" y="-20%" width="140%" height="140%">
      <feDropShadow dx="0" dy="5" stdDeviation="8" flood-color="#101828" flood-opacity="0.10"/>
    </filter>
    <style>
      .title { font: 700 42px Arial, sans-serif; fill: #17202F; }
      .subtitle { font: 400 20px Arial, sans-serif; fill: #667085; }
      .lane { font: 700 17px Arial, sans-serif; fill: #344054; letter-spacing: 1px; }
      .nodeTitle { font: 700 21px Arial, sans-serif; fill: #17202F; }
      .nodeText { font: 400 16px Arial, sans-serif; fill: #667085; }
      .small { font: 600 14px Arial, sans-serif; fill: #475467; }
      .whiteTitle { font: 700 21px Arial, sans-serif; fill: #FFFFFF; }
      .whiteText { font: 400 15px Arial, sans-serif; fill: #E8F6F2; }
      .label { font: 600 14px Arial, sans-serif; fill: #475467; }
    </style>
  </defs>

  <rect width="1600" height="900" fill="#F7F8FA"/>
  <text x="80" y="76" class="title">AI model governance with Unleash</text>
  <text x="80" y="112" class="subtitle">Separate deployment from release, evaluate locally, and recover without redeploying.</text>

  <rect x="60" y="155" width="1480" height="350" rx="12" fill="#FFFFFF" stroke="#DDE3EA"/>
  <rect x="60" y="535" width="1480" height="275" rx="12" fill="#FFFFFF" stroke="#DDE3EA"/>
  <text x="88" y="190" class="lane">REQUEST PLANE</text>
  <text x="88" y="570" class="lane">CONTROL PLANE</text>

  <!-- Request plane nodes -->
  <g filter="url(#shadow)">
    <rect x="100" y="250" width="190" height="130" rx="10" fill="#FFFFFF" stroke="#B8C1CC"/>
    <rect x="360" y="230" width="230" height="170" rx="10" fill="#FFFFFF" stroke="#B8C1CC"/>
    <rect x="665" y="230" width="250" height="170" rx="10" fill="#EAF7F3" stroke="#55A996"/>
    <rect x="990" y="230" width="210" height="170" rx="10" fill="#263447" stroke="#263447"/>
    <rect x="1280" y="190" width="210" height="125" rx="10" fill="#EDF9F5" stroke="#4CA58E"/>
    <rect x="1280" y="345" width="210" height="125" rx="10" fill="#FFF4E8" stroke="#D99B17"/>
  </g>

  <circle cx="195" cy="285" r="20" fill="#DCE6F2"/>
  <circle cx="195" cy="278" r="7" fill="#52677F"/>
  <path d="M178 307 Q195 289 212 307" fill="#52677F"/>
  <text x="195" y="340" class="nodeTitle" text-anchor="middle">User request</text>
  <text x="195" y="365" class="nodeText" text-anchor="middle">ID + audience</text>

  <text x="475" y="275" class="nodeTitle" text-anchor="middle">FastAPI application</text>
  <text x="475" y="307" class="nodeText" text-anchor="middle">Request orchestration</text>
  <rect x="394" y="330" width="162" height="38" rx="6" fill="#F2F4F7"/>
  <text x="475" y="354" class="small" text-anchor="middle">Local kill-switch guard</text>

  <text x="790" y="275" class="nodeTitle" text-anchor="middle">Unleash Python SDK</text>
  <text x="790" y="307" class="nodeText" text-anchor="middle">Local flag evaluation</text>
  <text x="790" y="335" class="nodeText" text-anchor="middle">Cached configuration</text>
  <rect x="704" y="350" width="172" height="28" rx="14" fill="#CDECE4"/>
  <text x="790" y="369" class="small" text-anchor="middle">userId stickiness</text>

  <text x="1095" y="274" class="whiteTitle" text-anchor="middle">Routing decision</text>
  <text x="1095" y="311" class="whiteText" text-anchor="middle">gpt_5_assistant</text>
  <text x="1095" y="340" class="whiteText" text-anchor="middle">enabled?</text>
  <text x="1095" y="370" class="whiteText" text-anchor="middle">Audience + rollout</text>

  <text x="1385" y="235" class="nodeTitle" text-anchor="middle">GPT-4 Assistant</text>
  <text x="1385" y="265" class="nodeText" text-anchor="middle">Stable fallback</text>
  <circle cx="1385" cy="289" r="7" fill="#087E6A"/>

  <text x="1385" y="390" class="nodeTitle" text-anchor="middle">GPT-5 Assistant</text>
  <text x="1385" y="420" class="nodeText" text-anchor="middle">Experimental model</text>
  <circle cx="1385" cy="444" r="7" fill="#D99B17"/>

  <!-- Request arrows -->
  <line x1="290" y1="315" x2="348" y2="315" stroke="#475467" stroke-width="3" marker-end="url(#arrow)"/>
  <line x1="590" y1="315" x2="653" y2="315" stroke="#475467" stroke-width="3" marker-end="url(#arrow)"/>
  <line x1="915" y1="315" x2="978" y2="315" stroke="#475467" stroke-width="3" marker-end="url(#arrow)"/>
  <path d="M1200 285 C1240 285 1240 252 1268 252" fill="none" stroke="#087E6A" stroke-width="3" marker-end="url(#arrowGreen)"/>
  <path d="M1200 345 C1240 345 1240 407 1268 407" fill="none" stroke="#D99B17" stroke-width="3" marker-end="url(#arrow)"/>
  <text x="1225" y="261" class="label">No</text>
  <text x="1225" y="394" class="label">Yes</text>

  <!-- Control plane nodes -->
  <g filter="url(#shadow)">
    <rect x="100" y="630" width="220" height="115" rx="10" fill="#FFFFFF" stroke="#B8C1CC"/>
    <rect x="405" y="630" width="220" height="115" rx="10" fill="#FFF0EF" stroke="#D86A64"/>
    <rect x="715" y="615" width="250" height="145" rx="10" fill="#EAF7F3" stroke="#55A996"/>
    <rect x="1060" y="630" width="215" height="115" rx="10" fill="#FFFFFF" stroke="#B8C1CC"/>
  </g>

  <text x="210" y="672" class="nodeTitle" text-anchor="middle">Admin controls</text>
  <text x="210" y="702" class="nodeText" text-anchor="middle">Enable + rollout</text>
  <text x="210" y="727" class="nodeText" text-anchor="middle">Audience targeting</text>

  <text x="515" y="672" class="nodeTitle" text-anchor="middle">Emergency kill switch</text>
  <text x="515" y="703" class="nodeText" text-anchor="middle">Immediate local block</text>
  <text x="515" y="728" class="nodeText" text-anchor="middle">Global flag disable</text>

  <text x="840" y="658" class="nodeTitle" text-anchor="middle">Unleash server</text>
  <text x="840" y="690" class="nodeText" text-anchor="middle">Admin API + feature policy</text>
  <text x="840" y="718" class="nodeText" text-anchor="middle">Internal / beta / regular</text>
  <rect x="759" y="730" width="162" height="24" rx="12" fill="#CDECE4"/>
  <text x="840" y="747" class="small" text-anchor="middle">localhost:4242</text>

  <text x="1167" y="672" class="nodeTitle" text-anchor="middle">PostgreSQL</text>
  <text x="1167" y="703" class="nodeText" text-anchor="middle">Flags + strategies</text>
  <text x="1167" y="728" class="nodeText" text-anchor="middle">Local Docker volume</text>

  <!-- Control arrows -->
  <path d="M320 687 C350 687 350 598 650 598 C690 598 690 687 703 687" fill="none" stroke="#475467" stroke-width="3" marker-end="url(#arrow)"/>
  <text x="505" y="588" class="label" text-anchor="middle">Admin API updates</text>
  <line x1="625" y1="715" x2="703" y2="715" stroke="#C4322B" stroke-width="3" marker-end="url(#arrowRed)"/>
  <line x1="965" y1="687" x2="1048" y2="687" stroke="#475467" stroke-width="3" marker-end="url(#arrow)"/>

  <!-- Cross-plane relationships -->
  <path d="M840 615 C840 540 790 500 790 412" fill="none" stroke="#087E6A" stroke-width="3" stroke-dasharray="9 7" marker-end="url(#arrowGreen)"/>
  <text x="858" y="522" class="label">SDK refreshes flag configuration</text>
  <path d="M515 630 C515 545 475 500 475 412" fill="none" stroke="#C4322B" stroke-width="3" stroke-dasharray="9 7" marker-end="url(#arrowRed)"/>
  <text x="330" y="523" class="label">Immediate mitigation</text>

  <!-- Footer legend -->
  <line x1="80" y1="855" x2="125" y2="855" stroke="#475467" stroke-width="3" marker-end="url(#arrow)"/>
  <text x="140" y="861" class="small">Request or control flow</text>
  <line x1="360" y1="855" x2="405" y2="855" stroke="#087E6A" stroke-width="3" stroke-dasharray="8 6" marker-end="url(#arrowGreen)"/>
  <text x="420" y="861" class="small">Configuration refresh</text>
  <line x1="650" y1="855" x2="695" y2="855" stroke="#C4322B" stroke-width="3" stroke-dasharray="8 6" marker-end="url(#arrowRed)"/>
  <text x="710" y="861" class="small">Incident mitigation</text>
  <text x="1520" y="861" class="small" text-anchor="end">Unleash AI Governance Demo</text>
</svg>
